<svg id="svg" version="1.1" xmlns="http://www.w3.org/2000/svg" xmlns:xlink="http://www.w3.org/1999/xlink" width="400" height="266.6666666666667" viewBox="0, 0, 400,266.6666666666667"><g id="svgg"><path id="path0" d="M97.266 22.055 C 87.052 22.733,76.577 26.683,69.661 32.465 C 55.248 44.515,49.732 55.928,48.435 76.390 L 48.140 81.036 46.632 83.161 C 38.966 93.960,35.294 105.285,35.767 116.667 C 36.015 122.632,38.493 131.148,41.092 134.971 L 41.586 135.697 41.754 132.963 C 42.292 124.167,46.593 113.644,52.832 105.859 C 60.451 96.352,69.437 90.346,86.859 83.112 C 107.661 74.475,119.235 66.248,126.751 54.755 C 131.009 48.244,133.316 39.668,131.953 35.417 C 131.752 34.791,131.760 34.786,132.150 35.274 C 133.790 37.327,133.720 44.352,132.010 49.412 C 127.437 62.940,113.832 74.141,89.063 84.770 C 72.898 91.706,66.148 95.982,57.878 104.523 C 47.764 114.968,42.869 126.436,42.522 140.495 C 42.138 156.016,47.062 167.995,59.142 180.930 C 66.777 189.106,68.606 191.464,70.503 195.573 C 74.139 203.448,72.327 211.242,66.159 214.261 C 63.766 215.433,60.003 215.397,58.220 214.187 L 57.292 213.557 57.292 214.213 C 57.292 214.574,57.474 215.222,57.697 215.653 C 60.793 221.641,71.582 222.332,78.994 217.017 C 79.940 216.339,80.216 216.232,80.105 216.586 C 76.882 226.829,83.498 240.081,93.750 243.915 C 102.715 247.267,113.673 243.951,117.284 236.793 C 118.264 234.849,118.218 234.832,115.601 236.164 C 105.184 241.469,98.713 229.341,105.136 216.552 C 105.787 215.256,107.224 212.730,108.330 210.939 C 112.503 204.181,113.611 201.946,115.077 197.331 C 117.520 189.637,117.428 177.709,114.867 170.122 C 114.281 168.387,114.328 168.401,115.667 170.378 C 117.792 173.514,121.856 177.243,127.865 181.570 C 135.834 187.308,139.382 194.991,136.641 200.574 C 134.863 204.193,130.422 206.163,126.848 204.918 C 123.986 203.920,126.677 208.275,129.598 209.368 C 138.082 212.542,147.202 202.166,144.927 191.927 C 144.721 190.996,144.482 189.941,144.396 189.583 C 144.114 188.402,145.037 190.235,145.759 192.292 C 147.668 197.726,146.662 202.832,142.547 208.597 C 137.623 215.496,137.028 220.301,140.428 225.713 C 144.904 232.836,155.179 233.704,158.604 227.247 C 159.374 225.797,159.210 225.589,157.848 226.284 C 155.349 227.559,151.730 226.613,150.245 224.297 C 148.356 221.350,149.581 217.175,153.565 212.984 C 154.840 211.644,156.390 209.872,157.010 209.047 C 157.631 208.223,158.915 206.943,159.864 206.203 C 168.659 199.344,172.736 191.893,172.734 182.682 C 172.732 175.546,171.092 171.534,165.036 163.853 C 158.997 156.194,159.051 152.679,165.355 142.869 C 173.884 129.597,173.971 120.832,165.737 104.391 C 161.479 95.889,161.388 95.467,161.339 84.115 C 161.281 70.803,159.807 63.225,155.358 53.385 C 150.321 42.244,139.614 32.067,130.078 29.355 C 128.932 29.030,127.205 28.317,126.239 27.772 C 118.795 23.569,107.636 21.367,97.266 22.055 M101.693 28.400 C 82.502 30.277,64.267 43.899,56.648 62.047 C 55.528 64.714,55.594 63.992,56.787 60.521 C 63.666 40.503,80.071 28.155,99.740 28.189 C 103.310 28.195,103.536 28.219,101.693 28.400 M119.401 33.629 C 122.001 34.020,121.967 34.259,119.324 34.158 C 100.802 33.446,78.507 47.267,68.690 65.546 C 67.184 68.351,67.157 68.230,68.493 64.672 C 75.978 44.745,99.184 30.595,119.401 33.629 M125.427 43.364 C 119.682 55.311,107.146 65.051,86.719 73.439 C 69.088 80.678,60.145 86.453,52.643 95.443 C 48.144 100.834,43.490 109.693,43.490 112.864 C 43.490 113.237,43.384 113.542,43.254 113.542 C 42.263 113.542,44.600 104.263,46.578 100.338 C 53.037 87.526,64.502 78.670,85.286 70.438 C 106.080 62.203,120.424 52.029,125.776 41.721 C 127.227 38.927,126.962 40.171,125.427 43.364 M143.178 43.460 C 148.579 47.147,152.462 53.694,153.774 61.328 C 154.039 62.871,153.780 62.434,151.586 57.630 C 148.538 50.957,146.616 47.930,143.143 44.336 C 141.067 42.188,141.074 42.024,143.178 43.460 M113.418 44.596 C 104.441 52.617,96.191 58.035,83.901 63.980 C 64.151 73.535,59.981 76.041,53.845 82.046 C 52.446 83.415,51.302 84.467,51.302 84.385 C 51.302 83.961,55.262 79.017,57.116 77.125 C 62.212 71.927,67.435 68.625,80.859 62.116 C 95.799 54.873,109.010 47.525,113.607 43.902 C 115.120 42.709,114.988 43.193,113.418 44.596 M136.978 51.888 C 136.973 66.109,128.448 77.981,107.878 92.411 C 106.410 93.440,106.959 92.813,108.773 91.387 C 123.517 79.800,136.392 60.519,136.453 49.935 C 136.456 49.398,136.576 48.958,136.719 48.958 C 136.877 48.958,136.979 50.108,136.978 51.888 M143.299 58.020 C 146.809 62.401,149.151 70.122,148.884 76.432 C 148.750 79.610,148.715 79.765,146.735 86.068 C 144.660 92.673,146.198 99.422,151.715 107.924 C 154.833 112.728,154.567 114.350,150.287 116.631 C 146.554 118.621,146.264 119.819,148.380 124.493 C 148.420 124.581,147.827 124.602,147.064 124.538 C 145.806 124.434,145.431 124.545,143.085 125.717 C 140.280 127.118,139.186 127.528,136.979 128.005 L 135.547 128.315 136.538 128.750 C 137.957 129.374,139.866 129.688,142.243 129.688 C 144.200 129.688,144.353 129.730,145.104 130.481 C 146.822 132.199,145.277 134.635,142.469 134.635 L 140.936 134.635 141.735 136.112 C 143.109 138.649,142.756 142.183,140.937 144.099 C 138.334 146.841,134.017 146.570,125.458 143.127 C 116.058 139.346,110.276 135.757,104.470 130.097 L 101.779 127.474 102.466 129.036 C 104.559 133.798,107.956 137.593,113.487 141.350 C 115.426 142.667,115.650 142.902,115.526 143.485 C 115.449 143.846,114.984 145.851,114.491 147.940 C 113.701 151.292,113.220 154.308,112.605 159.766 L 112.429 161.328 111.901 160.026 C 111.611 159.310,110.024 156.087,108.376 152.865 C 98.339 133.247,97.959 132.188,98.249 124.630 C 98.709 112.638,103.782 104.446,117.694 93.230 C 120.622 90.870,124.179 87.897,125.597 86.625 C 129.294 83.309,132.987 82.622,139.230 84.086 C 143.180 85.012,145.040 84.114,142.766 82.380 C 140.863 80.928,139.059 80.405,135.482 80.268 C 132.285 80.145,131.943 80.041,132.697 79.415 C 136.063 76.621,141.054 65.081,141.819 58.323 C 142.029 56.468,142.051 56.463,143.299 58.020 M223.177 62.007 C 220.343 63.308,217.744 64.208,211.872 65.921 C 194.747 70.917,187.800 77.026,186.576 88.166 C 185.668 96.426,193.036 102.937,200.838 100.770 C 203.597 100.004,204.426 96.683,201.715 97.258 C 196.920 98.274,195.023 96.710,194.618 91.406 C 194.038 83.808,199.148 76.375,207.368 72.863 C 211.061 71.285,215.952 69.766,215.754 70.258 C 214.636 73.030,212.102 80.867,209.255 90.355 C 205.038 104.404,203.123 110.189,202.604 110.447 C 202.389 110.554,200.397 110.954,198.177 111.338 C 184.690 113.667,178.370 117.887,177.922 124.861 C 177.517 131.174,182.242 135.394,189.737 135.412 C 198.388 135.433,205.068 129.191,209.379 117.057 C 210.714 113.300,210.818 113.168,212.705 112.791 C 218.417 111.653,218.749 111.685,219.514 113.451 C 222.610 120.599,233.879 121.320,240.986 114.826 C 242.700 113.259,242.656 113.261,242.525 114.779 C 242.297 117.439,243.964 119.010,247.015 119.010 C 249.588 119.010,249.958 118.688,250.274 116.176 C 250.726 112.575,253.199 104.252,254.700 101.277 C 256.213 98.279,260.603 94.271,262.374 94.271 C 264.792 94.271,264.702 95.659,261.611 106.120 C 259.560 113.061,259.788 115.767,262.585 117.668 C 265.952 119.957,269.543 119.464,273.618 116.154 C 275.497 114.628,275.521 114.620,275.522 115.560 C 275.524 117.488,277.590 118.994,280.245 119.005 C 282.314 119.013,282.768 118.578,283.091 116.276 C 284.553 105.871,289.173 96.611,293.886 94.642 C 297.480 93.141,297.665 95.167,294.812 104.782 C 292.309 113.219,292.348 115.306,295.049 117.446 C 298.611 120.267,302.951 119.435,307.721 115.018 L 309.321 113.535 309.625 114.801 C 310.912 120.165,318.780 120.774,323.633 115.886 C 324.385 115.129,325.000 114.408,325.000 114.286 C 325.000 114.163,325.101 114.063,325.225 114.063 C 325.349 114.063,325.137 115.193,324.755 116.575 L 324.059 119.087 322.240 119.786 C 308.465 125.076,303.868 133.154,312.740 136.478 C 319.993 139.195,325.443 134.830,330.341 122.380 L 331.320 119.891 333.008 119.016 C 335.196 117.882,337.906 115.803,340.422 113.332 C 342.426 111.362,342.431 111.359,342.288 112.254 C 341.528 117.011,350.118 120.668,357.031 118.531 C 363.875 116.416,372.287 108.118,369.836 105.900 C 369.001 105.144,368.569 105.414,366.489 107.998 C 364.725 110.190,361.728 113.021,361.171 113.021 C 361.071 113.021,361.153 112.475,361.354 111.808 C 362.196 109.008,361.587 105.133,359.467 99.807 C 357.672 95.297,357.638 92.969,359.367 92.969 C 363.517 92.969,362.387 89.341,357.984 88.527 C 354.161 87.821,352.202 89.212,349.347 94.661 C 345.170 102.636,343.235 105.440,338.679 110.117 C 334.690 114.213,331.667 116.688,332.132 115.479 C 332.217 115.255,333.167 111.769,334.242 107.731 C 335.317 103.694,336.740 98.676,337.405 96.579 C 338.923 91.789,338.595 90.299,335.858 89.562 C 333.070 88.811,331.218 89.857,330.623 92.517 C 329.617 97.014,326.718 106.746,325.952 108.196 C 324.348 111.233,320.621 114.583,318.848 114.583 C 315.990 114.583,316.326 111.852,321.096 96.315 C 322.695 91.106,321.162 88.520,316.860 89.171 C 314.951 89.460,315.407 88.357,311.949 101.042 C 310.325 106.996,309.574 108.618,307.342 110.984 C 304.367 114.138,302.390 114.942,301.172 113.495 C 300.244 112.391,300.263 112.279,302.871 103.385 C 305.448 94.601,305.609 93.249,304.297 91.384 C 301.623 87.584,294.830 88.485,290.040 93.276 C 288.906 94.409,288.319 94.855,288.455 94.479 C 289.682 91.093,287.183 88.582,283.582 89.582 C 282.027 90.014,281.770 90.350,281.491 92.322 C 281.211 94.301,278.946 102.795,278.013 105.364 C 276.011 110.882,270.268 115.873,268.503 113.630 C 267.526 112.388,267.580 112.023,269.946 103.856 C 272.593 94.715,272.777 93.316,271.567 91.485 C 268.868 87.403,260.290 88.884,256.472 94.091 L 255.672 95.182 255.892 94.271 C 256.449 91.957,255.858 90.420,254.146 89.736 C 251.463 88.662,248.438 89.931,248.438 92.129 C 248.438 93.513,245.494 105.187,244.762 106.709 C 240.565 115.432,226.563 117.318,226.563 109.160 L 226.563 107.882 229.102 107.750 C 240.827 107.137,248.507 92.677,238.817 89.458 C 230.817 86.801,218.560 97.893,218.494 107.848 C 218.490 108.457,218.365 108.552,217.383 108.686 C 214.903 109.024,211.979 109.168,211.979 108.953 C 211.979 108.827,212.685 106.263,213.547 103.255 C 214.410 100.247,216.573 92.454,218.354 85.938 C 222.758 69.821,222.706 69.957,225.351 67.543 C 229.434 63.816,227.877 59.851,223.177 62.007 M344.141 74.597 C 340.940 75.750,339.642 79.895,341.836 81.954 C 342.720 82.783,342.657 84.204,341.667 85.765 C 341.237 86.443,340.885 87.221,340.885 87.494 C 340.885 90.848,348.626 83.059,349.146 79.181 C 349.558 76.107,346.846 73.623,344.141 74.597 M102.083 88.128 C 102.083 88.256,94.449 93.553,89.844 96.621 C 57.795 117.969,47.642 141.334,58.450 168.864 C 59.611 171.821,59.504 171.883,57.808 169.239 C 48.846 155.269,50.064 135.654,60.923 119.068 C 66.765 110.145,76.167 101.776,87.760 95.178 C 90.907 93.388,102.083 87.886,102.083 88.128 M155.902 94.922 C 156.549 98.166,157.904 101.772,160.548 107.292 C 165.759 118.171,166.326 127.404,162.322 136.198 C 160.832 139.472,158.338 143.000,159.608 140.039 C 163.931 129.953,163.622 118.908,158.715 108.101 C 155.935 101.976,154.924 97.892,154.979 93.000 C 155.006 90.503,155.033 90.361,155.248 91.536 C 155.378 92.253,155.673 93.776,155.902 94.922 M122.846 93.272 C 126.006 98.710,135.472 101.938,141.081 99.491 C 142.452 98.893,142.844 98.438,141.992 98.437 C 140.375 98.433,139.280 96.916,139.079 94.401 L 138.932 92.578 138.281 93.727 C 137.355 95.361,136.497 95.909,134.656 96.042 C 132.194 96.220,126.390 94.685,123.497 93.091 L 122.384 92.478 122.846 93.272 M237.332 93.455 C 239.943 95.752,233.971 103.621,228.682 104.850 L 227.281 105.176 227.417 104.339 C 228.489 97.733,234.586 91.040,237.332 93.455 M352.343 101.136 C 353.733 105.592,354.260 108.325,354.103 110.272 C 353.635 116.112,348.268 117.333,346.756 111.944 C 346.250 110.143,345.537 109.591,344.389 110.114 C 343.161 110.674,343.256 110.427,345.455 107.357 C 346.661 105.674,348.422 102.794,349.369 100.958 C 350.316 99.121,351.141 97.669,351.203 97.731 C 351.265 97.793,351.778 99.325,352.343 101.136 M99.846 101.888 C 88.015 113.294,82.635 124.846,83.153 137.730 C 83.509 146.614,85.948 152.623,93.451 163.101 C 107.789 183.125,109.489 194.649,100.804 212.945 C 99.799 215.063,98.719 217.764,98.404 218.946 C 98.089 220.129,97.784 221.047,97.724 220.988 C 97.459 220.723,98.557 216.102,99.513 213.456 C 103.205 203.239,103.808 200.325,103.562 193.880 C 103.187 184.069,100.494 177.648,91.762 165.755 C 83.100 153.955,80.628 148.066,80.287 138.408 C 79.774 123.926,85.578 111.655,97.292 102.456 C 99.072 101.057,103.008 98.438,103.328 98.438 C 103.381 98.438,101.814 99.990,99.846 101.888 M147.005 115.334 C 145.956 115.815,144.732 116.927,145.251 116.927 C 145.404 116.927,146.115 116.633,146.830 116.274 C 147.544 115.915,148.692 115.545,149.379 115.450 C 150.329 115.320,150.506 115.231,150.119 115.080 C 149.251 114.740,148.092 114.835,147.005 115.334 M201.302 114.947 C 201.302 117.360,197.079 125.112,194.277 127.841 C 190.688 131.338,185.681 130.410,185.678 126.247 C 185.674 121.458,189.923 117.846,198.177 115.620 C 201.105 114.831,201.302 114.788,201.302 114.947 M78.747 119.336 C 78.643 119.515,78.241 120.130,77.855 120.703 C 68.522 134.545,71.145 155.111,84.348 171.615 C 95.111 185.068,97.160 195.196,92.292 210.875 C 87.919 224.960,88.557 230.850,95.159 237.355 C 96.881 239.050,96.626 239.105,94.331 237.531 C 87.864 233.097,85.354 224.562,88.080 216.276 C 88.598 214.701,89.553 211.888,90.201 210.026 C 94.853 196.668,92.743 186.564,82.424 172.786 C 67.483 152.838,65.894 136.382,77.400 120.768 C 78.552 119.205,79.267 118.445,78.747 119.336 M92.225 122.433 C 91.893 131.008,94.374 138.684,101.316 150.558 C 108.953 163.619,111.645 171.150,111.866 180.078 L 111.963 183.984 111.589 181.380 C 110.509 173.859,108.044 167.755,101.705 156.901 C 93.084 142.140,90.593 133.876,91.656 123.560 C 91.938 120.828,92.073 120.052,92.268 120.052 C 92.295 120.052,92.276 121.124,92.225 122.433 M322.042 125.985 C 320.268 131.228,316.318 134.748,314.278 132.902 C 312.769 131.537,314.425 128.870,318.789 125.634 C 322.419 122.944,323.048 123.012,322.042 125.985 M66.909 128.952 C 63.602 137.341,62.863 151.638,65.231 161.383 C 66.813 167.894,68.416 171.614,72.686 178.686 C 79.325 189.682,81.242 194.665,81.248 200.935 C 81.252 204.877,79.510 209.746,77.344 211.849 L 76.272 212.891 77.062 211.198 C 80.884 203.015,79.715 195.798,72.654 183.989 C 63.986 169.489,61.478 161.551,61.794 149.609 C 61.994 142.024,64.017 133.562,66.935 128.109 C 67.452 127.144,67.437 127.612,66.909 128.952 M227.397 128.667 C 216.601 130.331,211.136 142.156,219.357 146.063 C 222.728 147.665,225.891 146.144,223.762 143.945 C 218.960 138.984,224.457 132.262,233.375 132.189 C 237.332 132.156,237.180 132.043,236.157 134.269 C 235.702 135.258,234.138 138.997,232.682 142.578 L 230.033 149.089 227.321 149.252 C 220.860 149.642,215.503 151.469,212.206 154.408 C 202.952 162.656,217.313 174.451,227.265 166.776 C 230.464 164.309,234.372 158.191,235.497 153.888 C 235.704 153.096,239.204 153.363,244.556 154.581 L 246.276 154.972 245.642 157.499 C 244.388 162.500,244.844 165.193,247.257 167.033 C 250.867 169.786,254.574 169.398,257.889 165.921 C 258.718 165.050,259.442 164.481,259.497 164.656 C 259.551 164.831,259.730 165.410,259.893 165.942 C 261.093 169.843,267.006 169.627,271.530 165.516 L 273.138 164.054 273.549 165.468 C 274.419 168.462,278.261 169.726,281.641 168.130 C 282.852 167.558,285.938 164.800,285.938 164.289 C 285.938 164.164,286.055 164.063,286.198 164.063 C 286.341 164.063,286.458 164.243,286.458 164.463 C 286.458 167.795,291.841 169.838,295.703 167.972 C 298.934 166.412,303.239 160.196,306.137 152.907 L 307.104 150.476 308.044 150.642 C 310.711 151.113,310.887 152.139,309.001 156.215 C 304.863 165.155,308.148 171.053,315.692 168.230 C 319.344 166.864,324.324 160.208,322.598 158.999 C 321.784 158.429,321.737 158.451,320.797 159.831 C 317.954 164.003,315.262 165.792,313.973 164.368 C 313.073 163.374,313.509 161.393,316.102 154.688 C 318.149 149.394,317.878 148.877,313.021 148.816 C 309.751 148.775,308.743 148.557,309.007 147.950 C 310.441 144.655,308.993 141.670,305.960 141.668 C 302.232 141.665,301.128 147.507,304.503 149.383 C 305.829 150.120,299.189 162.240,296.319 164.319 C 292.303 167.227,291.974 162.559,295.441 151.867 C 296.631 148.197,295.938 146.563,293.027 146.173 C 290.453 145.827,290.476 145.791,288.134 154.014 L 286.361 160.241 284.782 161.935 C 278.948 168.193,277.682 165.659,281.271 154.909 C 281.976 152.800,282.552 150.848,282.552 150.572 C 282.552 149.103,280.521 148.094,278.691 148.656 C 277.791 148.932,277.724 148.907,276.982 148.006 C 272.356 142.394,260.681 149.725,259.314 159.100 C 258.981 161.385,257.851 162.992,255.619 164.353 C 252.648 166.165,250.833 162.761,252.192 157.928 C 252.965 155.176,253.064 155.025,254.287 154.717 C 256.868 154.067,257.799 151.745,255.531 151.614 C 253.893 151.520,253.912 151.939,255.327 147.082 C 257.438 139.831,258.623 136.753,260.773 132.929 C 262.728 129.452,262.490 128.646,259.508 128.646 C 255.877 128.646,253.820 131.811,249.724 143.699 C 248.476 147.323,247.399 150.344,247.331 150.412 C 247.263 150.480,245.814 150.364,244.112 150.154 C 242.409 149.944,240.100 149.695,238.982 149.602 L 236.948 149.432 237.124 148.609 C 238.274 143.234,242.279 133.202,243.620 132.340 C 247.448 129.878,246.932 127.775,242.750 128.798 C 241.039 129.217,240.508 129.233,237.672 128.954 C 232.925 128.488,229.229 128.384,227.397 128.667 M155.218 131.680 C 155.051 132.937,154.461 135.802,153.908 138.047 C 150.706 151.037,152.123 158.564,159.247 166.406 C 167.119 175.072,169.044 184.013,164.986 193.066 C 164.195 194.832,163.964 194.892,164.387 193.222 C 164.919 191.126,164.746 184.034,164.105 181.679 C 162.999 177.610,160.571 173.231,156.647 168.229 C 148.868 158.313,147.708 147.535,153.139 135.647 C 153.859 134.069,154.634 131.960,154.860 130.960 C 155.412 128.514,155.591 128.873,155.218 131.680 M295.443 134.763 C 294.842 134.974,293.936 135.637,293.303 136.329 C 289.745 140.223,293.960 144.645,297.830 141.078 C 301.469 137.724,299.776 133.244,295.443 134.763 M274.634 149.770 C 275.958 151.239,274.796 156.382,272.308 160.063 C 269.330 164.469,267.121 165.849,266.011 163.997 C 263.358 159.570,271.444 146.228,274.634 149.770 M124.805 152.345 C 122.950 159.912,125.951 171.435,131.285 177.221 C 132.746 178.806,132.275 178.673,130.031 176.866 C 123.406 171.532,120.960 161.191,124.273 152.521 C 125.200 150.097,125.371 150.040,124.805 152.345 M228.925 153.451 C 225.728 161.621,222.733 165.104,218.907 165.104 C 213.924 165.104,213.950 158.704,218.946 155.514 C 222.318 153.361,229.544 151.867,228.925 153.451 M138.245 157.041 C 139.580 162.360,142.212 167.175,146.256 171.693 C 151.267 177.292,153.282 180.159,154.930 184.031 C 158.317 191.991,157.467 201.802,152.851 208.020 C 151.902 209.298,151.573 209.312,152.227 208.047 C 154.622 203.416,155.278 195.871,153.795 190.024 C 152.552 185.122,150.533 181.582,145.101 174.779 C 140.239 168.692,138.519 165.341,137.626 160.223 C 137.291 158.300,137.095 153.055,137.386 153.776 C 137.443 153.919,137.830 155.389,138.245 157.041 M221.758 173.977 C 212.524 176.265,210.528 183.502,216.523 192.964 C 221.254 200.432,221.532 204.069,217.520 206.021 C 211.073 209.158,205.180 201.822,210.199 196.907 C 212.688 194.469,210.463 193.731,206.448 195.662 C 201.019 198.273,200.043 202.398,203.946 206.240 C 211.509 213.685,226.699 209.691,226.686 200.260 C 226.683 197.601,226.128 196.254,223.018 191.343 C 218.193 183.728,218.314 178.695,223.363 176.974 C 227.455 175.580,229.027 178.086,226.823 182.490 C 224.788 186.556,226.471 186.728,230.524 182.867 C 235.791 177.850,229.967 171.944,221.758 173.977 M297.101 175.729 C 294.565 177.054,291.518 181.814,289.565 187.500 C 289.098 188.861,288.694 190.005,288.669 190.042 C 288.643 190.080,288.197 189.934,287.679 189.717 C 282.935 187.735,274.386 194.430,273.542 200.786 C 273.254 202.959,269.924 206.510,268.174 206.510 C 266.174 206.510,266.218 204.334,268.360 197.178 L 269.862 192.162 269.083 191.198 C 267.877 189.705,265.744 188.735,264.885 189.288 C 264.693 189.412,263.810 192.078,262.923 195.212 C 262.036 198.347,261.042 201.464,260.714 202.140 C 259.569 204.499,256.050 207.056,255.068 206.242 C 254.279 205.587,254.467 204.522,257.053 195.007 C 257.833 192.136,257.676 191.591,255.735 190.430 C 253.099 188.853,252.886 189.091,250.793 195.964 C 248.793 202.529,245.810 206.250,242.546 206.250 C 239.907 206.250,239.701 203.535,241.778 196.131 C 243.240 190.919,242.886 191.406,245.209 191.406 C 246.932 191.406,247.233 191.332,247.798 190.767 C 249.113 189.452,248.479 188.802,245.881 188.802 C 243.702 188.802,243.807 189.039,244.788 186.346 C 245.472 184.468,245.263 183.886,243.504 182.767 C 241.090 181.233,240.058 182.026,238.535 186.589 L 237.840 188.672 236.571 188.802 C 234.307 189.035,233.853 191.172,236.029 191.357 C 237.200 191.456,237.230 191.027,235.675 196.403 C 233.219 204.898,233.757 207.682,238.186 209.380 C 241.596 210.687,244.193 210.025,247.068 207.114 C 248.978 205.181,248.851 205.228,249.038 206.383 C 249.707 210.502,256.005 211.162,259.862 207.516 C 260.691 206.732,260.754 206.714,261.012 207.184 C 262.976 210.777,268.278 210.871,271.859 207.377 C 273.852 205.433,273.602 205.528,273.810 206.633 C 274.637 211.043,281.029 210.989,285.654 206.532 C 286.605 205.616,287.240 205.167,287.240 205.409 C 287.240 206.254,288.566 208.034,289.771 208.807 C 292.698 210.683,295.269 210.358,298.535 207.698 L 299.944 206.550 300.716 207.510 C 303.633 211.140,309.744 210.554,312.585 206.372 L 313.190 205.482 314.015 206.651 C 316.603 210.324,321.929 211.178,325.888 208.555 C 326.988 207.827,327.331 207.732,328.676 207.787 C 332.822 207.956,339.188 203.743,338.036 201.591 C 337.494 200.579,336.957 200.710,335.574 202.192 C 333.865 204.021,329.427 205.944,329.427 204.854 C 329.427 204.803,329.844 203.859,330.353 202.758 C 332.778 197.508,332.703 193.687,330.126 191.193 C 324.448 185.699,313.049 192.373,313.024 201.207 C 313.019 203.083,309.877 206.258,308.037 206.246 C 305.700 206.231,305.800 203.254,308.396 195.630 C 309.485 192.433,309.485 192.432,309.018 191.564 C 308.104 189.868,305.057 188.775,304.335 189.884 C 303.826 190.665,301.267 198.224,300.649 200.772 C 299.807 204.239,296.288 207.120,294.404 205.885 C 292.631 204.724,292.089 200.306,293.532 198.780 C 295.851 196.326,302.911 183.582,303.429 180.914 C 304.262 176.627,300.805 173.794,297.101 175.729 M309.359 178.584 C 305.824 180.431,305.794 185.410,309.318 185.416 C 311.829 185.420,314.508 181.547,313.432 179.468 C 312.585 177.829,311.326 177.556,309.359 178.584 M300.997 179.262 C 301.202 181.060,294.759 194.792,293.710 194.792 C 293.211 194.792,296.608 183.875,297.964 181.120 C 299.296 178.415,300.795 177.496,300.997 179.262 M325.639 192.089 C 326.923 192.581,327.224 196.335,326.282 200.091 C 325.615 202.750,325.647 202.704,324.223 203.150 C 322.841 203.583,322.362 204.472,322.836 205.726 C 323.091 206.402,323.055 206.531,322.508 206.889 C 320.703 208.072,319.004 206.404,319.015 203.459 C 319.036 197.561,322.848 191.018,325.639 192.089 M287.613 192.793 C 288.064 193.124,288.067 193.266,287.662 196.031 C 287.430 197.621,287.240 199.512,287.240 200.233 C 287.240 203.161,281.165 207.834,279.832 205.932 C 277.078 201.999,284.065 190.200,287.613 192.793 " stroke="none" fill="#050505" fill-rule="evenodd"></path><path id="path1" d="M0.000 133.333 L 0.000 266.667 200.000 266.667 L 400.000 266.667 400.000 133.333 L 400.000 0.000 200.000 0.000 L 0.000 0.000 0.000 133.333 M110.528 22.514 C 116.562 23.488,122.500 25.468,126.548 27.856 C 127.328 28.316,128.969 28.979,130.194 29.330 C 142.671 32.902,154.129 46.195,158.813 62.532 C 160.933 69.925,161.232 72.390,161.433 84.115 L 161.605 94.141 162.586 97.005 C 163.125 98.581,164.511 101.742,165.666 104.030 C 174.100 120.736,174.040 129.428,165.396 142.969 C 159.268 152.569,159.101 156.342,164.510 163.021 C 170.900 170.911,172.922 175.662,172.913 182.770 C 172.902 191.633,168.710 199.318,160.233 206.014 C 159.058 206.942,157.721 208.225,157.263 208.864 C 156.804 209.503,155.344 211.161,154.018 212.548 C 149.106 217.687,148.084 222.575,151.338 225.361 C 153.086 226.857,155.417 227.196,157.577 226.267 C 159.676 225.363,159.659 226.421,157.537 228.743 C 150.955 235.945,138.281 229.331,138.281 218.695 C 138.281 215.429,139.184 213.190,142.197 208.984 C 145.632 204.191,146.460 201.986,146.453 197.656 C 146.449 194.698,145.336 189.950,144.530 189.452 C 144.396 189.370,144.481 189.805,144.719 190.419 C 146.568 195.192,144.590 202.694,140.430 206.692 C 135.507 211.422,126.850 210.953,125.903 205.904 C 125.664 204.631,125.760 204.568,127.360 204.952 C 134.198 206.592,139.312 199.778,136.745 192.448 C 135.258 188.201,132.872 185.421,126.881 180.951 C 122.038 177.337,117.934 173.586,115.954 170.964 C 115.305 170.104,114.847 169.635,114.935 169.922 C 116.407 174.705,116.793 177.784,116.783 184.635 C 116.766 195.006,115.122 200.201,108.459 210.938 C 104.295 217.646,102.940 220.977,102.681 225.146 C 102.061 235.092,108.873 240.279,116.475 235.651 C 117.913 234.776,117.969 234.763,117.969 235.297 C 117.969 237.804,112.284 242.874,107.789 244.376 C 91.802 249.720,76.228 234.507,79.863 217.098 L 80.018 216.357 78.746 217.263 C 70.743 222.963,58.518 221.303,57.123 214.326 C 56.931 213.366,57.021 213.361,58.537 214.249 C 62.551 216.602,68.774 214.023,71.105 209.041 C 74.487 201.814,71.396 193.890,60.933 182.962 C 54.088 175.813,50.851 171.513,47.983 165.755 C 36.306 142.315,42.695 115.825,64.193 98.552 C 71.195 92.925,75.767 90.384,89.714 84.369 C 104.336 78.062,112.536 73.157,120.520 65.943 C 130.171 57.223,135.203 45.142,132.676 36.758 C 132.151 35.016,131.991 35.105,132.354 36.937 C 132.975 40.066,131.633 45.786,129.103 50.793 C 122.545 63.769,109.359 74.024,88.037 82.728 C 72.490 89.076,64.515 93.860,57.066 101.309 C 48.396 109.980,42.917 121.225,41.882 132.473 C 41.484 136.798,40.591 135.813,38.061 128.255 C 35.966 121.997,35.910 121.710,35.753 116.354 C 35.418 104.968,38.479 95.135,45.715 84.358 L 48.111 80.788 48.290 77.178 C 49.295 56.879,55.036 44.643,69.091 32.845 C 79.562 24.056,95.489 20.085,110.528 22.514 M94.922 28.428 C 77.962 30.341,63.764 41.880,57.484 58.854 C 56.022 62.806,56.084 62.839,57.985 59.115 C 66.733 41.970,83.780 29.882,101.432 28.306 C 102.005 28.254,101.243 28.208,99.740 28.203 C 98.236 28.197,96.068 28.299,94.922 28.428 M108.984 33.507 C 91.665 35.624,75.067 48.290,68.740 64.218 C 67.729 66.764,67.767 66.874,68.956 64.840 C 79.376 47.018,98.227 34.923,116.797 34.145 L 120.703 33.981 118.674 33.657 C 116.832 33.363,110.912 33.271,108.984 33.507 M125.758 41.984 C 125.105 43.562,121.703 47.763,118.828 50.541 C 110.064 59.008,101.540 64.102,85.547 70.429 C 60.107 80.494,46.257 93.451,43.631 109.643 C 43.094 112.959,43.144 113.264,43.847 110.938 C 48.657 95.013,62.319 83.089,87.109 73.177 C 103.892 66.467,116.608 57.423,122.981 47.663 C 124.424 45.452,126.457 41.475,126.250 41.267 C 126.174 41.191,125.953 41.514,125.758 41.984 M143.326 44.429 C 146.475 47.586,149.095 51.773,151.946 58.203 C 153.821 62.431,153.992 62.616,153.371 59.734 C 152.067 53.689,148.959 48.280,144.797 44.817 C 142.087 42.561,141.241 42.338,143.326 44.429 M112.370 44.833 C 106.447 49.034,97.394 54.074,82.943 61.214 C 63.177 70.980,58.480 74.310,52.473 82.813 C 51.532 84.144,51.653 84.060,54.181 81.624 C 59.581 76.423,65.893 72.446,77.214 67.116 C 94.411 59.018,101.301 54.808,111.263 46.309 C 115.087 43.047,115.314 42.744,112.370 44.833 M136.484 50.651 C 136.144 60.672,125.111 77.393,110.286 90.352 C 109.316 91.200,109.931 90.818,111.911 89.342 C 125.979 78.860,133.459 69.719,135.954 59.961 C 136.642 57.270,137.091 52.258,136.764 50.911 C 136.532 49.956,136.508 49.934,136.484 50.651 M141.974 57.878 C 141.479 64.405,137.814 73.066,132.854 79.427 L 132.347 80.078 135.119 80.114 C 141.063 80.191,146.501 83.441,142.512 84.532 C 141.832 84.718,141.024 84.617,138.151 83.986 C 133.217 82.902,128.693 83.726,126.172 86.169 C 124.547 87.743,122.326 89.615,115.743 94.957 C 105.052 103.632,100.182 111.150,98.558 121.484 C 97.428 128.681,98.612 133.677,103.835 143.750 C 108.268 152.299,111.091 157.906,111.753 159.475 L 112.399 161.008 112.731 157.783 C 113.131 153.894,113.791 150.157,114.818 145.965 C 115.239 144.247,115.564 142.830,115.539 142.818 C 110.930 140.427,105.162 134.664,102.930 130.221 C 101.430 127.236,101.536 126.956,103.396 128.985 C 111.643 137.985,132.020 147.632,138.435 145.574 C 142.026 144.423,143.564 139.756,141.602 135.969 C 141.208 135.209,140.885 134.551,140.885 134.506 C 140.885 134.461,141.341 134.486,141.897 134.560 C 144.121 134.859,145.573 133.788,145.573 131.849 C 145.573 130.253,144.927 129.904,141.776 129.798 C 139.453 129.720,137.014 129.221,135.809 128.577 C 135.373 128.344,135.684 128.203,137.763 127.693 C 139.312 127.313,141.207 126.588,142.839 125.751 C 145.020 124.631,145.665 124.416,146.810 124.425 C 147.562 124.431,148.177 124.401,148.177 124.359 C 148.177 124.316,147.884 123.502,147.526 122.551 C 146.405 119.574,146.882 118.363,149.787 116.809 C 154.465 114.307,154.851 112.783,151.917 108.407 C 147.517 101.845,145.975 97.600,145.979 92.057 L 145.981 87.891 147.199 84.165 C 149.944 75.766,149.132 67.785,144.781 60.397 C 142.962 57.310,142.077 56.515,141.974 57.878 M227.226 62.147 C 228.521 63.545,227.924 65.447,225.565 67.436 C 222.921 69.665,222.848 69.856,218.351 86.323 C 216.433 93.344,214.223 101.313,213.439 104.032 C 212.654 106.750,212.040 109.002,212.073 109.035 C 212.106 109.068,213.563 108.960,215.311 108.796 L 218.490 108.497 218.490 107.433 C 218.490 97.498,231.969 85.966,239.383 89.560 C 248.351 93.907,240.718 107.062,228.690 107.986 L 226.504 108.154 226.620 109.351 C 227.085 114.166,232.296 115.986,237.731 113.232 C 239.987 112.088,243.760 108.514,244.642 106.684 C 245.345 105.227,248.024 94.810,248.314 92.402 C 248.580 90.202,249.756 89.322,252.426 89.324 C 254.917 89.326,256.427 90.886,256.182 93.207 L 256.057 94.401 257.670 92.805 C 261.961 88.561,268.156 87.638,271.142 90.796 C 272.955 92.714,272.863 93.911,270.182 103.293 C 267.760 111.770,267.636 112.586,268.607 113.634 C 270.135 115.282,274.552 112.054,276.929 107.552 C 278.131 105.276,281.040 95.300,281.453 92.036 C 281.699 90.092,282.401 89.521,284.728 89.372 C 287.870 89.172,289.565 91.187,288.661 94.049 C 288.519 94.497,288.950 94.207,290.266 92.969 C 295.015 88.501,300.902 87.567,303.955 90.796 C 305.893 92.846,305.806 93.730,302.586 104.732 C 300.575 111.600,300.436 112.699,301.445 113.709 C 302.273 114.536,302.961 114.414,304.899 113.095 C 308.733 110.486,309.925 108.160,312.738 97.789 C 315.102 89.076,315.002 89.271,317.180 89.113 C 321.546 88.798,322.828 91.227,321.123 96.585 C 316.871 109.947,316.250 113.947,318.345 114.473 C 320.227 114.945,324.497 111.230,326.152 107.682 C 326.750 106.400,330.268 94.088,330.616 92.057 C 331.298 88.088,338.536 88.541,338.541 92.553 C 338.541 92.969,338.119 94.610,337.603 96.199 C 336.528 99.508,332.244 115.403,332.388 115.547 C 332.585 115.745,335.383 113.344,338.048 110.691 C 342.723 106.037,344.935 102.855,349.445 94.294 C 352.377 88.729,354.698 87.384,359.110 88.695 C 362.523 89.708,362.983 92.969,359.714 92.969 C 357.621 92.969,357.573 94.653,359.522 99.639 C 361.621 105.008,362.359 109.597,361.481 111.820 C 360.715 113.756,363.915 111.232,366.457 107.894 C 367.659 106.315,368.479 105.469,368.804 105.469 C 374.062 105.469,365.530 115.585,357.976 118.308 C 350.734 120.918,341.747 117.587,342.235 112.473 L 342.330 111.477 339.850 113.890 C 337.115 116.551,335.614 117.705,333.073 119.103 C 331.596 119.916,331.317 120.193,330.883 121.280 C 325.279 135.308,320.318 139.411,312.500 136.484 C 304.006 133.304,308.181 125.382,321.094 120.180 C 324.155 118.947,324.040 119.065,324.671 116.487 L 325.193 114.355 323.931 115.736 C 319.246 120.862,311.084 120.392,309.572 114.909 C 309.195 113.542,309.216 113.541,307.802 114.999 C 303.136 119.807,297.602 120.520,294.275 116.740 C 292.164 114.342,292.232 113.030,294.935 103.962 C 297.622 94.949,297.393 93.091,293.809 94.826 C 288.990 97.159,284.144 107.012,283.153 116.493 C 282.930 118.625,282.502 119.010,280.355 119.010 C 277.582 119.010,275.998 118.020,275.480 115.962 L 275.201 114.855 273.733 116.165 C 269.759 119.714,264.956 120.149,261.891 117.239 C 259.415 114.888,259.448 112.973,262.116 104.027 C 264.825 94.944,264.599 93.082,260.997 94.826 C 255.924 97.282,252.121 105.229,250.130 117.533 C 249.508 121.378,242.448 119.036,242.448 114.985 L 242.448 113.773 241.148 114.894 C 233.489 121.501,222.729 120.753,219.353 113.380 L 218.701 111.955 217.488 112.118 C 210.638 113.044,210.995 112.827,209.511 116.983 C 204.573 130.815,196.270 137.274,186.134 135.170 C 176.253 133.119,174.780 121.487,183.698 115.936 C 187.670 113.463,191.877 112.218,201.864 110.560 C 203.137 110.349,203.375 109.682,209.503 89.193 C 211.131 83.750,213.175 77.256,214.045 74.762 C 214.915 72.269,215.586 70.187,215.536 70.137 C 215.332 69.933,208.299 72.500,206.120 73.574 C 198.884 77.141,194.775 83.149,194.725 90.234 C 194.686 95.902,196.439 97.984,200.701 97.333 C 202.807 97.011,203.385 97.232,203.385 98.356 C 203.385 100.182,201.548 101.134,198.047 101.123 C 188.347 101.090,183.703 92.211,188.085 82.076 C 191.325 74.581,197.483 70.041,208.984 66.664 C 210.990 66.076,214.006 65.189,215.689 64.694 C 217.371 64.199,219.949 63.274,221.418 62.638 C 224.714 61.212,226.240 61.083,227.226 62.147 M347.699 75.166 C 350.633 77.954,349.166 82.656,344.043 86.882 C 341.802 88.730,339.759 88.649,340.959 86.759 C 342.665 84.070,342.762 83.237,341.536 81.771 C 338.464 78.093,344.252 71.889,347.699 75.166 M94.922 91.571 C 84.137 96.984,77.414 101.439,70.801 107.556 C 52.111 124.845,46.519 150.746,57.593 168.740 C 58.829 170.749,59.602 171.496,58.773 169.881 C 53.376 159.365,52.804 143.310,57.421 131.910 C 62.972 118.204,72.349 108.294,92.973 94.337 C 102.829 87.668,102.899 87.568,94.922 91.571 M155.068 94.159 C 155.238 98.241,156.216 102.141,158.199 106.641 C 163.581 118.855,164.150 126.813,160.435 137.956 C 159.898 139.567,159.490 140.885,159.529 140.885 C 159.829 140.885,162.143 136.630,162.755 134.952 C 166.215 125.473,165.410 117.063,160.009 106.250 C 157.793 101.814,156.476 98.174,155.583 94.020 L 154.938 91.016 155.068 94.159 M128.385 94.883 C 134.204 96.624,136.879 96.344,138.082 93.869 C 138.788 92.415,139.062 92.400,139.064 93.815 C 139.067 96.252,140.182 97.997,141.963 98.354 C 143.011 98.563,142.895 98.814,141.471 99.424 C 135.560 101.956,127.759 99.707,123.423 94.221 C 122.017 92.443,122.110 92.350,124.284 93.351 C 125.322 93.829,127.168 94.518,128.385 94.883 M234.241 93.331 C 231.919 94.343,226.386 103.817,227.479 104.909 C 227.710 105.141,229.970 104.462,231.474 103.709 C 237.510 100.689,240.159 90.753,234.241 93.331 M349.906 100.184 C 348.556 102.906,346.485 106.221,344.613 108.656 L 343.464 110.150 344.584 109.996 C 345.967 109.807,346.379 110.196,346.965 112.247 C 347.755 115.009,349.991 116.075,351.996 114.646 C 354.620 112.776,354.628 108.508,352.022 100.314 L 351.170 97.634 349.906 100.184 M100.521 100.211 C 81.947 112.127,75.009 135.521,84.467 154.345 C 85.970 157.338,88.349 161.002,91.960 165.885 C 104.560 182.926,106.714 194.525,100.394 211.299 C 99.056 214.851,97.903 218.829,97.932 219.792 C 97.939 220.007,98.224 219.245,98.565 218.099 C 98.906 216.953,99.998 214.316,100.991 212.240 C 104.985 203.885,105.601 201.462,105.592 194.141 C 105.577 182.986,103.313 177.157,93.761 163.687 C 88.214 155.864,86.565 152.940,84.904 147.983 C 79.750 132.600,84.678 116.735,99.019 102.539 C 101.008 100.570,102.600 98.958,102.555 98.958 C 102.510 98.958,101.595 99.522,100.521 100.211 M150.366 115.065 C 150.441 115.186,149.833 115.432,149.014 115.610 C 148.196 115.789,147.019 116.227,146.399 116.584 C 145.163 117.296,144.841 117.257,145.342 116.456 C 146.106 115.232,149.832 114.200,150.366 115.065 M198.698 115.529 C 190.706 117.638,186.467 120.899,185.783 125.465 C 185.064 130.258,190.676 131.515,194.553 127.430 C 196.889 124.968,198.985 121.505,200.271 117.983 C 201.423 114.827,201.414 114.813,198.698 115.529 M76.364 122.331 C 66.215 137.175,68.112 153.516,82.159 172.266 C 90.154 182.936,92.446 188.623,92.446 197.786 C 92.446 203.194,91.863 206.003,89.306 212.928 C 85.025 224.520,87.076 232.957,95.443 238.179 C 95.955 238.499,95.567 237.949,94.317 236.586 C 88.473 230.208,87.972 224.479,92.097 211.198 C 97.087 195.132,95.103 185.149,84.231 171.615 C 71.140 155.318,68.499 135.616,77.468 121.159 C 78.653 119.248,77.989 119.953,76.364 122.331 M91.810 123.047 C 90.652 133.438,93.135 142.060,101.295 155.990 C 108.269 167.894,110.985 174.695,111.798 182.292 C 111.852 182.793,111.914 182.441,111.935 181.510 C 112.124 173.446,108.467 162.569,101.954 151.823 C 95.150 140.598,92.568 133.488,92.211 125.000 L 92.042 120.964 91.810 123.047 M320.898 124.337 C 315.506 127.420,312.166 132.190,314.715 133.168 C 317.180 134.114,320.935 130.044,322.272 124.977 C 322.669 123.471,322.527 123.406,320.898 124.337 M237.038 128.806 C 240.820 129.193,241.248 129.193,242.432 128.806 C 245.989 127.642,247.793 129.547,244.981 131.498 C 242.617 133.138,242.559 133.217,241.197 136.665 C 240.468 138.509,239.278 141.941,238.552 144.293 C 237.826 146.644,237.167 148.773,237.088 149.023 C 236.965 149.414,237.123 149.479,238.200 149.479 C 239.515 149.479,245.708 150.154,246.715 150.406 C 247.266 150.545,247.398 150.256,249.077 145.263 C 253.633 131.710,256.209 127.797,260.108 128.509 C 262.677 128.978,262.735 129.621,260.565 133.497 C 258.759 136.722,254.167 149.602,254.167 151.444 C 254.167 151.495,254.831 151.572,255.643 151.615 C 256.498 151.660,257.164 151.824,257.223 152.005 C 257.408 152.564,255.229 154.660,254.279 154.838 C 251.561 155.348,250.931 164.088,253.565 164.749 C 255.225 165.166,259.112 161.799,259.118 159.940 C 259.146 151.117,271.321 142.599,276.672 147.659 C 277.667 148.601,278.111 148.866,278.395 148.687 C 279.229 148.159,281.142 148.400,281.866 149.124 C 282.841 150.100,282.764 150.725,280.992 156.155 C 278.391 164.126,278.742 166.469,282.190 164.168 C 285.525 161.942,286.045 161.018,288.164 153.563 C 290.353 145.862,290.946 145.140,294.098 146.338 C 296.436 147.227,296.590 148.415,295.038 153.562 C 292.765 161.098,292.513 164.043,294.070 164.876 C 296.075 165.949,301.053 159.332,304.042 151.618 L 304.777 149.721 304.201 149.318 C 300.275 146.568,303.360 139.680,307.547 141.848 C 309.437 142.827,310.106 145.163,309.253 147.803 C 309.037 148.471,311.513 149.011,313.723 148.777 C 317.729 148.354,318.185 149.626,316.022 155.191 C 313.395 161.953,313.048 163.901,314.349 164.598 C 315.662 165.300,318.310 163.392,320.371 160.258 C 321.514 158.519,321.910 158.309,322.701 159.025 C 323.453 159.706,323.272 160.492,321.881 162.571 C 314.621 173.425,302.997 169.388,308.180 157.813 C 310.863 151.821,310.872 151.668,308.593 150.911 C 307.859 150.667,307.227 150.509,307.190 150.559 C 307.152 150.610,306.737 151.647,306.267 152.865 C 303.434 160.201,298.394 167.238,295.201 168.317 C 291.464 169.578,287.120 167.955,286.545 165.083 C 286.353 164.121,286.434 164.092,285.003 165.623 C 280.788 170.129,274.598 169.992,273.413 165.367 L 273.085 164.089 271.395 165.670 C 266.808 169.960,261.071 169.907,259.653 165.561 L 259.335 164.585 258.076 165.962 C 254.738 169.616,250.378 169.926,246.868 166.761 C 244.661 164.771,244.350 162.862,245.444 158.016 C 245.803 156.426,246.067 155.102,246.030 155.075 C 245.536 154.708,238.041 153.407,236.327 153.391 C 235.925 153.387,235.662 153.759,235.182 155.013 C 230.417 167.476,222.539 172.169,213.984 167.640 C 202.641 161.635,211.662 149.554,227.796 149.143 L 229.942 149.089 231.817 144.401 C 232.848 141.823,234.414 138.054,235.297 136.025 L 236.902 132.337 235.170 132.163 C 226.394 131.281,219.577 137.639,223.287 143.246 C 223.660 143.809,224.081 144.271,224.222 144.271 C 224.792 144.271,224.474 145.799,223.793 146.335 C 221.580 148.076,216.538 145.316,215.606 141.855 C 214.175 136.541,218.740 130.771,225.849 128.908 C 228.239 128.282,231.617 128.251,237.038 128.806 M65.418 131.973 C 58.816 149.263,60.722 163.751,72.122 182.932 C 77.018 191.169,77.749 192.732,78.685 196.956 C 79.678 201.436,78.999 207.559,77.068 211.542 L 76.541 212.630 77.469 211.589 C 83.639 204.665,82.317 194.848,73.174 179.688 C 63.521 163.681,61.302 149.998,65.603 133.001 C 66.495 129.480,66.455 129.259,65.418 131.973 M154.827 131.421 C 154.729 131.945,154.175 133.439,153.596 134.742 C 147.956 147.430,148.804 157.971,156.235 167.535 C 163.767 177.228,165.919 183.874,164.515 193.099 C 164.147 195.519,166.092 190.153,166.564 187.446 C 167.871 179.958,165.731 173.850,159.237 166.536 C 151.814 158.175,150.517 150.865,154.027 137.162 C 154.863 133.901,155.434 130.469,155.141 130.469 C 155.067 130.469,154.925 130.897,154.827 131.421 M298.963 135.030 C 302.137 137.903,296.996 144.187,293.311 141.940 C 289.987 139.913,293.024 134.066,297.203 134.447 C 297.895 134.510,298.673 134.767,298.963 135.030 M271.871 149.700 C 268.132 151.682,264.366 161.082,266.143 163.997 C 267.040 165.469,268.356 164.886,270.858 161.907 C 275.945 155.850,276.667 147.158,271.871 149.700 M124.250 152.771 C 121.706 159.418,123.148 169.378,127.364 174.285 C 128.679 175.815,131.983 178.441,131.047 177.212 C 125.427 169.830,122.672 159.017,124.716 152.361 C 125.163 150.907,124.862 151.172,124.250 152.771 M226.042 153.045 C 218.209 154.362,212.617 160.463,216.075 163.921 C 219.757 167.603,225.886 162.542,228.756 153.451 C 228.949 152.841,228.053 152.707,226.042 153.045 M137.532 157.747 C 137.901 164.129,139.465 167.587,145.276 174.864 C 155.386 187.525,157.089 195.762,152.222 208.464 C 151.774 209.633,154.047 206.018,154.842 204.297 C 159.367 194.503,156.912 183.821,147.780 173.568 C 141.997 167.075,139.365 162.563,138.093 156.966 C 137.474 154.239,137.340 154.425,137.532 157.747 M229.087 174.338 C 234.448 176.790,233.801 181.966,227.730 185.187 C 225.963 186.125,225.119 184.995,226.324 183.303 C 229.149 179.335,227.758 175.799,223.822 176.944 C 218.436 178.509,218.139 183.423,222.966 191.065 C 226.056 195.957,226.638 197.310,226.775 199.929 C 227.270 209.357,212.215 213.827,204.209 206.629 C 199.952 202.802,200.841 198.312,206.394 195.605 C 210.686 193.512,212.756 194.280,210.176 197.009 C 205.864 201.568,210.169 208.167,216.295 206.386 C 221.323 204.924,221.490 200.843,216.817 193.620 C 212.972 187.676,212.092 184.320,213.383 180.522 C 215.166 175.277,223.750 171.897,229.087 174.338 M301.477 175.505 C 303.702 176.862,304.203 179.863,302.770 183.254 C 301.472 186.328,296.232 195.297,293.642 198.879 C 292.633 200.273,292.511 202.983,293.378 204.706 C 294.951 207.831,299.517 205.176,300.658 200.473 C 301.139 198.495,303.261 192.005,303.986 190.299 C 304.477 189.143,305.395 189.005,307.187 189.819 C 309.460 190.851,309.766 192.057,308.581 195.304 C 305.519 203.695,306.056 208.228,309.792 205.511 C 311.826 204.032,312.667 202.836,312.858 201.148 C 313.831 192.557,322.437 186.500,328.669 190.021 C 332.778 192.343,333.305 196.504,330.318 203.057 L 329.424 205.019 330.596 204.858 C 332.315 204.623,334.141 203.591,335.484 202.098 C 336.779 200.658,337.184 200.521,337.881 201.292 C 339.685 203.285,334.013 207.589,329.336 207.775 C 327.265 207.857,326.888 207.950,325.983 208.606 C 322.492 211.135,317.404 210.522,314.434 207.213 L 313.218 205.859 311.752 207.302 C 308.093 210.904,303.929 211.067,300.851 207.728 L 299.822 206.612 298.653 207.668 C 295.217 210.771,291.681 210.866,288.623 207.936 C 287.958 207.299,287.439 206.530,287.340 206.038 L 287.175 205.209 285.466 206.808 C 280.840 211.135,274.489 211.095,273.792 206.735 L 273.638 205.768 272.251 207.188 C 268.951 210.568,264.681 211.002,261.784 208.253 C 261.318 207.811,260.938 207.288,260.938 207.090 C 260.938 206.876,260.493 207.110,259.839 207.671 C 255.732 211.186,250.565 210.803,249.064 206.873 L 248.615 205.696 247.029 207.263 C 244.021 210.234,241.283 210.839,237.891 209.281 C 234.147 207.561,233.268 204.772,234.761 199.349 C 235.116 198.060,235.751 195.752,236.171 194.220 L 236.936 191.434 235.851 191.355 C 234.841 191.282,234.760 191.219,234.685 190.445 C 234.565 189.204,235.428 188.440,236.749 188.617 L 237.760 188.753 238.188 187.280 C 239.650 182.249,241.280 180.972,243.793 182.889 C 245.386 184.104,245.533 184.715,244.734 186.783 L 244.080 188.478 246.025 188.602 C 247.973 188.727,248.425 188.963,248.434 189.859 C 248.444 190.928,247.775 191.272,245.422 191.406 L 243.145 191.536 242.009 195.703 C 239.816 203.750,239.923 206.250,242.458 206.250 C 245.677 206.250,248.793 202.303,250.784 195.703 C 252.657 189.492,253.134 188.913,255.416 190.077 C 258.077 191.435,258.113 191.670,256.529 197.351 C 254.012 206.380,254.195 207.725,257.630 205.450 C 260.119 203.800,260.782 202.479,262.908 194.922 C 264.738 188.417,264.787 188.358,267.373 189.610 C 270.141 190.950,270.187 191.372,268.259 197.911 C 266.338 204.428,266.253 206.011,267.809 206.308 C 269.589 206.648,272.885 203.383,273.450 200.720 C 274.902 193.881,282.926 187.657,287.744 189.632 L 288.640 189.999 289.489 187.469 C 292.597 178.203,297.643 173.168,301.477 175.505 M312.917 178.750 C 314.346 180.179,313.782 182.675,311.596 184.594 C 308.843 187.011,305.314 184.082,307.006 180.784 C 308.410 178.047,311.240 177.073,312.917 178.750 M299.378 178.984 C 297.909 180.453,293.156 194.024,293.864 194.732 C 293.944 194.812,294.010 194.771,294.010 194.640 C 294.010 194.508,294.984 192.687,296.173 190.592 C 300.019 183.818,301.819 178.720,300.462 178.442 C 300.215 178.391,299.727 178.635,299.378 178.984 M324.056 192.314 C 321.746 193.285,319.676 197.652,319.154 202.654 C 318.835 205.714,320.373 207.987,322.095 207.001 C 322.784 206.606,322.817 206.464,322.512 205.184 C 322.296 204.280,323.276 203.145,324.483 202.900 C 325.517 202.691,325.969 201.699,326.567 198.324 C 327.345 193.927,326.280 191.379,324.056 192.314 M284.956 192.999 C 281.460 194.729,278.462 201.841,279.714 205.431 C 280.769 208.461,287.239 203.366,287.240 199.505 C 287.240 198.560,287.417 196.790,287.634 195.573 C 288.179 192.506,287.422 191.778,284.956 192.999 " stroke="none" fill="#fbfbfb" fill-rule="evenodd"></path><path id="path2" d="M345.166 85.742 L 344.401 86.589 345.247 85.824 C 345.713 85.403,346.094 85.022,346.094 84.977 C 346.094 84.776,345.879 84.953,345.166 85.742 M98.295 103.190 L 97.266 104.297 98.372 103.267 C 99.402 102.310,99.599 102.083,99.402 102.083 C 99.359 102.083,98.861 102.581,98.295 103.190 M63.607 147.786 C 63.610 148.359,63.664 148.563,63.726 148.239 C 63.788 147.915,63.786 147.446,63.721 147.197 C 63.655 146.949,63.604 147.214,63.607 147.786 M244.857 188.728 C 245.251 188.788,245.895 188.788,246.289 188.728 C 246.683 188.669,246.361 188.620,245.573 188.620 C 244.785 188.620,244.463 188.669,244.857 188.728 M67.646 220.757 C 67.970 220.819,68.439 220.817,68.688 220.752 C 68.937 220.687,68.672 220.636,68.099 220.639 C 67.526 220.641,67.322 220.695,67.646 220.757 M79.238 222.656 C 79.238 223.301,79.288 223.564,79.350 223.242 C 79.413 222.920,79.413 222.393,79.350 222.070 C 79.288 221.748,79.238 222.012,79.238 222.656 " stroke="none" fill="#989898" fill-rule="evenodd"></path><path id="path3" d="M108.975 100.846 L 107.682 102.214 109.049 100.921 C 109.801 100.210,110.417 99.595,110.417 99.554 C 110.417 99.360,110.175 99.576,108.975 100.846 M82.883 135.417 C 82.883 136.061,82.934 136.325,82.996 136.003 C 83.058 135.680,83.058 135.153,82.996 134.831 C 82.934 134.508,82.883 134.772,82.883 135.417 M72.201 141.016 C 72.204 141.589,72.257 141.792,72.320 141.468 C 72.382 141.144,72.380 140.676,72.314 140.427 C 72.249 140.178,72.198 140.443,72.201 141.016 M228.063 149.143 C 228.387 149.205,228.856 149.202,229.105 149.137 C 229.354 149.072,229.089 149.021,228.516 149.024 C 227.943 149.027,227.739 149.080,228.063 149.143 M137.314 156.380 C 137.316 157.096,137.367 157.358,137.426 156.963 C 137.486 156.567,137.485 155.981,137.423 155.660 C 137.361 155.340,137.312 155.664,137.314 156.380 M278.190 168.930 C 278.441 168.995,278.851 168.995,279.102 168.930 C 279.352 168.864,279.147 168.810,278.646 168.810 C 278.145 168.810,277.939 168.864,278.190 168.930 M105.807 194.271 C 105.807 195.059,105.856 195.381,105.916 194.987 C 105.975 194.593,105.975 193.949,105.916 193.555 C 105.856 193.161,105.807 193.483,105.807 194.271 M163.788 202.799 L 162.891 203.776 163.867 202.879 C 164.776 202.043,164.963 201.823,164.765 201.823 C 164.721 201.823,164.282 202.262,163.788 202.799 " stroke="none" fill="#c8c8c8" fill-rule="evenodd"></path><path id="path4" d="M112.305 33.263 C 112.842 33.319,113.721 33.319,114.258 33.263 C 114.795 33.206,114.355 33.160,113.281 33.160 C 112.207 33.160,111.768 33.206,112.305 33.263 M136.655 49.609 C 136.723 49.967,136.824 50.260,136.879 50.260 C 136.934 50.260,136.979 49.967,136.979 49.609 C 136.979 49.251,136.878 48.958,136.755 48.958 C 136.631 48.958,136.587 49.251,136.655 49.609 M192.694 75.195 L 191.797 76.172 192.773 75.274 C 193.682 74.439,193.870 74.219,193.671 74.219 C 193.627 74.219,193.188 74.658,192.694 75.195 M134.054 80.137 C 134.522 80.195,135.225 80.193,135.617 80.134 C 136.008 80.075,135.625 80.027,134.766 80.029 C 133.906 80.030,133.586 80.079,134.054 80.137 M161.289 89.323 C 161.289 90.540,161.334 91.038,161.389 90.430 C 161.443 89.821,161.443 88.825,161.389 88.216 C 161.334 87.607,161.289 88.105,161.289 89.323 M265.951 88.982 C 266.201 89.047,266.611 89.047,266.862 88.982 C 267.113 88.916,266.908 88.863,266.406 88.863 C 265.905 88.863,265.700 88.916,265.951 88.982 M299.023 88.982 C 299.274 89.047,299.684 89.047,299.935 88.982 C 300.186 88.916,299.980 88.863,299.479 88.863 C 298.978 88.863,298.773 88.916,299.023 88.982 M135.221 100.440 C 135.472 100.505,135.882 100.505,136.133 100.440 C 136.383 100.374,136.178 100.321,135.677 100.321 C 135.176 100.321,134.971 100.374,135.221 100.440 M227.409 107.992 C 227.660 108.058,228.070 108.058,228.320 107.992 C 228.571 107.927,228.366 107.873,227.865 107.873 C 227.363 107.873,227.158 107.927,227.409 107.992 M241.647 114.258 L 241.016 114.974 241.686 114.386 C 242.055 114.062,242.436 113.877,242.532 113.973 C 242.629 114.070,242.708 114.013,242.708 113.845 C 242.708 113.346,242.317 113.498,241.647 114.258 M246.680 119.190 C 246.930 119.255,247.340 119.255,247.591 119.190 C 247.842 119.124,247.637 119.071,247.135 119.071 C 246.634 119.071,246.429 119.124,246.680 119.190 M42.253 141.536 C 42.256 142.109,42.309 142.313,42.372 141.989 C 42.434 141.665,42.432 141.196,42.366 140.947 C 42.301 140.699,42.250 140.964,42.253 141.536 M302.404 145.573 C 302.404 146.074,302.458 146.279,302.523 146.029 C 302.589 145.778,302.589 145.368,302.523 145.117 C 302.458 144.867,302.404 145.072,302.404 145.573 M224.414 173.621 C 224.736 173.683,225.264 173.683,225.586 173.621 C 225.908 173.559,225.645 173.508,225.000 173.508 C 224.355 173.508,224.092 173.559,224.414 173.621 M253.451 210.075 C 253.701 210.141,254.111 210.141,254.362 210.075 C 254.613 210.010,254.408 209.956,253.906 209.956 C 253.405 209.956,253.200 210.010,253.451 210.075 M278.190 210.075 C 278.441 210.141,278.851 210.141,279.102 210.075 C 279.352 210.010,279.147 209.956,278.646 209.956 C 278.145 209.956,277.939 210.010,278.190 210.075 " stroke="none" fill="#747c7a" fill-rule="evenodd"></path></g></svg>