<svg xmlns="http://www.w3.org/2000/svg" version="1.1" viewBox="-5.0 -10.0 110.0 135.0">
 <path d="m54.133 67.039c-1.0625-0.40234-2.1875-0.66016-3.3555-0.76562l21.605-57.215c0.17969-0.41797-0.29297-0.875-0.69922-0.67969-8.2852 3.7383-16.148 13.492-19.484 18.652-5.0078 7.7227-7.4102 17.18-6.418 26.113-0.14062 0.44922-7.5586 20.016-7.9883 21.184-3.3945 8.0742 3.1445 17.508 11.836 17.336 13.887-0.03125 17.754-19.473 4.5039-24.625zm-9.7109 9.9219c2.7812-6.7852 12.879-2.9922 10.434 3.9531-2.7852 6.8086-12.836 3.0156-10.434-3.9531z"/>
 <path d="m90.719 24.93c-0.14844-0.14844-0.38281-0.19141-0.57422-0.10547l-23.117 10.434c-0.046875-0.011718-6.543 17.293-6.543 17.293 4.6094-1.3398 9.0312-3.5273 12.98-6.4375 4.9492-3.6523 14.172-12.09 17.379-20.609 0.085938-0.21094 0.042969-0.42578-0.12891-0.57422z"/>
 <path d="m41.449 52.57c-0.11328-1.7461-0.16797-3.9336-0.0625-5.7383l-6.9883 3.1641c-1.1523-8.1719-10.312-13.168-17.805-9.6445-15.145 7.3477-5.0664 29.648 10.473 23.18l12.344-5.5859zm-24.836-2.5898c1.5195-4.5508 8.418-4.8359 10.281-0.33984 2.1406 4.3594-2.5977 9.3438-7.0547 7.5195-2.7969-1.0117-4.3672-4.4023-3.2305-7.1797z"/>
<text x="0.0" y="117.5" font-size="5.0" font-weight="bold" font-family="Arbeit Regular, Helvetica, Arial-Unicode, Arial, Sans-serif" fill="#000000">Created by Selot Lo</text><text x="0.0" y="122.5" font-size="5.0" font-weight="bold" font-family="Arbeit Regular, Helvetica, Arial-Unicode, Arial, Sans-serif" fill="#000000">from Noun Project</text></svg>